<svg xmlns="http://www.w3.org/2000/svg" height="118" width="46" viewBox="-64.479465 -15 558.82203 90"><path d="M18.2988 28.8576c-.1961.0263-.4145-.2568-.5075-.3902-.0283-.0384-.1355-.267-.1092-.3013.0424-.0323.2649.0425.3235.091.1456.1152.2628.277.3356.554.002.0324-.0263.0465-.0424.0465m-4.7313-2.6224c-.1335.0485-.461-.3235-.552-.461-.1678-.2528-.3377-.5338-.5156-.7825-.1658-.2204-.3498-.3781-.3923-.7643-.004-.0445-.0303-.1597-.002-.1577.18.0141.3518.3295.4428.4529.0647.089.1416.178.2002.271.089.1354.1254.2971.2184.4245.1132.1537.2507.2993.372.455.0647.0829.1517.1557.192.2689.0183.0586.0749.273.0365.2932m-1.3547-.0526c-.1011-.0081-.1436-.0708-.2063-.1173-.1658-.1233-.3053-.3215-.3093-.6086-.004-.0283.008-.0364.0283-.0364.1982-.002.3983.3033.4752.4449.0222.0424.0748.1577.0667.2385 0 .0546-.0243.0789-.0546.0789m-4.5029.9099c-.008.0222-.0242.0485-.0566.0505-.2143-.006-.279-.3255-.372-.4711-.0769-.1233-.1456-.2548-.2245-.3781-.0566-.0829-.1273-.1719-.1738-.269-.0587-.1233-.085-.2547-.1578-.3659-.0363-.0586-.097-.1092-.1395-.1638-.1172-.1577-.2224-.3235-.2972-.5216-.0162-.0708-.0364-.1395-.0526-.2103-.0444-.1193-.099-.2507-.1395-.3781-.0222-.0627-.0343-.1941-.0222-.2386.0101-.0182.0182-.0323.0344-.0283.1637.0243.3214.4226.4023.5702.089.1557.2265.281.3033.4408.0688.1476.093.3316.1699.473.0626.1093.1637.1962.2325.3014.087.1354.1496.3113.2183.461.0769.1698.188.3012.2548.465.0283.0687.0384.188.0202.2629m-.835-6.1366c-.0425-.0748-.087-.1638-.1173-.2426-.0344-.091-.0384-.174-.0748-.2609-.1274-.281-.269-.5904-.3943-.8674-.0546-.1172-.1274-.3336-.0768-.4812.008-.0202.0505-.008.0687.0121.0425.0385.0728.0627.1092.1052.0263.0404.0324.0849.0607.1253.0626.095.1455.1901.192.2973.1052.2284.1335.4832.2386.7056.0668.1456.18.273.2548.4206.0364.0829.0607.1678.085.2527.0161.0647.012.1517.0161.2022.002.0768-.006.1234-.0324.1274-.1981-.0121-.2567-.2548-.3295-.3963M49.673 39.9135c-.2487-.916-2.9359-.5216-5.1458-.7238-2.0119-.184-4.5918-.544-7.6935-1.6216-2.9035-1.007-5.71-2.1594-8.1585-3.4838 0 0-.9887-.5217-1.0938-.5803-.2043-.1233-.364-.2123-.5642-.3377-.1193-.0707-.3032-.18-.4367-.2386-.1719-.0707-.2871-.1637-.4347-.2547-.1517-.095-.3579-.1941-.5116-.2851-.2244-.1395-.364-.2467-.5762-.3983-.1314-.0991-.1982-.1274-.374-.2346-.1052-.0627-.2973-.1658-.3903-.2284-.1961-.1295-.3215-.2366-.5196-.3741-.1193-.085-.2083-.1375-.3518-.2265-.1416-.0869-.279-.1981-.4024-.2891-.0667-.0526-.1719-.1112-.2325-.176a6.934 6.934 0 00-.4388-.384c-.1375-.1032-.269-.2306-.4024-.3337-.0869-.0627-.2345-.186-.3194-.2487-.2224-.1597-.362-.279-.5823-.4387-.1416-.1052-.2609-.2447-.4024-.3498-.1577-.1173-.3033-.2528-.467-.37-.1052-.0728-.2265-.1659-.3074-.2488-.1051-.1273-.2042-.2143-.3154-.3396-.0809-.089-.2366-.188-.3276-.279-.1334-.174-.3275-.358-.5095-.4934-.1072-.099-.1395-.1456-.182-.1982-.0303-.0444-.0707-.095-.1577-.19-.087-.089-.1193-.1133-.1537-.1517-.0404-.0323-.0869-.0748-.2062-.192-.0364-.0385-.099-.1254-.1617-.2103-.0546-.0748-.1052-.1497-.1416-.188-.1071-.1133-.178-.1922-.2547-.273a9.5045 9.5045 0 01-.184-.19c-.0425-.0466-.0749-.1012-.1133-.1517a1.1035 1.1035 0 00-.103-.1456c-.0648-.0708-.1153-.0465-.1275-.0384-.0384.0262-.0546.103-.0121.194.0586.1072.1395.2265.19.2953.0122.0161.0223.0303.0284.0384.0202.0344.0384.0667.0586.101.0283.0506.0587.1052.095.1538.083.1112.1699.2042.2568.2911.0304.0283.0587.0587.085.089.0586.0606.103.1253.1475.194.0486.0668.0991.1396.1618.2083.0303.0284.0566.0647.0789.097.0283.0365.0566.077.089.1093.0505.0485.099.097.1475.1456a3.408 3.408 0 00.2467.2406c.0627.0525.1254.1193.19.182.1638.196.3438.3922.4914.5802.0829.1052.2386.184.3336.2568.1052.0789.188.2164.271.3215.0647.0768.2062.2022.273.283.1637.2104.277.3236.4933.4853.1314.093.2305.184.3316.3094.0606.0789.2466.2588.3174.3457.178.2265.2588.4388.2325.4449-.1213.0323-.4165-.2285-.5924-.3417-.1436-.0991-.1678-.1375-.3053-.2406-.0303-.0263-.2487-.178-.3235-.273-.0587-.0526-.2204-.2285-.271-.2891-.2466-.3155-.3295-.3337-.6126-.6107-.2062-.2022-.463-.3821-.6632-.562a4.1345 4.1345 0 01-.178-.1942c-.0666-.0667-.1495-.1273-.2102-.194-.095-.1173-.2204-.3499-.3316-.4328-.1173-.091-.2042-.1739-.3235-.2628-.0425-.0283-.0789-.083-.1233-.1173-.0587-.0404-.1254-.089-.1699-.1435-.1375-.176-.271-.3559-.4145-.5318-.0627-.085-.1537-.1537-.2163-.2406-.1335-.19-.2467-.3842-.3822-.5621-.192-.2487-.465-.4266-.649-.6774-.19-.2588-.3033-.558-.4812-.829-.0769-.1172-.1962-.2001-.281-.3113-.0486-.0647-.0749-.1395-.1214-.2103-.095-.1456-.2062-.2871-.3033-.4246-.1253-.186-.2103-.3862-.3377-.5823-.0182-.0263-.0626-.1577-.1415-.2548-.0748-.095-.1415-.2042-.2264-.3437-.089-.1355-.1294-.2265-.1921-.3195-.0627-.097-.1031-.186-.1456-.2507-.0404-.0688-.1314-.1921-.1638-.2406-.1152-.178-.1476-.2609-.2669-.4246-.0728-.1011-.1536-.184-.2224-.1598-.0526.0385-.0323.1011-.0202.1456.0526.1456.0526.1193.1092.2245.097.1738.1314.2567.2345.4165.0465.0768.1294.2507.1961.3437.0647.097.1335.2123.178.2912.0505.0849.1213.3073.192.4003.0506.0667.1234.2022.174.2992.099.1982.2244.3539.3275.5075.0687.1274.1375.2609.2042.3862.1375.2063.3013.3984.4347.6107.083.1476.1638.2952.2447.4428.0829.1213.194.2244.273.3477.097.1476.1496.3094.2466.455.0768.1132.174.2224.2507.3356.1315.1941.2487.3862.3862.5722.0769.1011.176.186.2507.2892.1032.1395.186.3053.2932.4225.1294.1214.1658.1941.267.3094.1495.184.5236.7097.4589.7137-.2184.0304-.641-.4488-.8189-.6227-.1375-.1375-.2911-.2346-.3862-.364-.1415-.19-.2446-.4044-.3862-.5884-.0505-.0687-.1273-.1192-.1779-.184-.097-.1253-.19-.2588-.3013-.368-.0465-.0444-.097-.0849-.1395-.1354-.1718-.2204-.3174-.457-.4832-.6875-.0728-.093-.1618-.1759-.2325-.2669-.0526-.0748-.085-.1556-.1315-.2365-.0667-.1031-.1556-.2022-.2224-.3053-.0505-.0769-.0809-.1537-.1334-.2326-.091-.1374-.2123-.2567-.3033-.3963-.0708-.1132-.091-.2608-.1658-.376-.188-.2871-.3923-.5803-.5763-.8674-.0485-.0749-.0687-.1578-.1132-.2305-.1516-.2366-.2911-.4914-.4408-.7239-.0546-.087-.0768-.186-.1314-.271-.0687-.105-.1739-.188-.2426-.289-.0526-.081-.0748-.17-.1153-.2609-.0546-.1233-.1314-.2426-.194-.3579-.0385-.0707-.0587-.1435-.1032-.2103-.18-.281-.3275-.5782-.4731-.8896-.0769-.1597-.19-.3094-.2649-.4731-.087-.18-.1698-.364-.2487-.5379a8.476 8.476 0 01-.1294-.3579c-.087-.186-.2224-.3457-.3053-.5398-.0587-.1314-.091-.2528-.1456-.364-.0344-.0667-.099-.1233-.1456-.093-.0485.0283-.0546.087-.0242.19.0566.1982.1658.4227.2163.5359.1031.2224.1557.455.2568.6814.0526.1274.1375.2467.1941.368.099.2163.1941.4327.2932.6369.0546.1193.099.2345.1638.3478.0323.0586.0849.1253.1112.19.0647.1456.0829.2993.1496.4368.0687.1435.18.2628.2467.4023.3417.728.6854 1.4214 1.0979 2.0664.1132.18.1739.3984.2891.5763.1193.188.283.3296.4004.5115.099.1517.1233.362.2143.5237.1294.2427.3073.4469.455.6753.0383.0647.0505.1355.0909.2022.0546.087.1274.1719.184.2609.0728.1193.1112.2547.1941.364.087.1212.2123.2183.2992.3416.1072.1476.184.3215.2973.4732.0768.103.1981.1759.277.281.1253.1638.56.734.6854.8937.19.2446.5338.6046.6915.926.0506.0991.2224.3357.186.3822-.091.0606-.5216-.4105-.5944-.4792-.18-.1719-.3357-.4105-.4913-.6086-.0385-.0445-.451-.4469-.4853-.4913a4.1847 4.1847 0 01-.1193-.1638c-.1153-.1719-.186-.3781-.3073-.5399-.0526-.0687-.1315-.1193-.18-.186-.095-.1254-.1597-.2669-.2548-.3943-.1435-.2022-.3336-.38-.4812-.5803-.1577-.2183-.273-.4771-.4367-.6955-.0809-.1072-.184-.2022-.2608-.3195-.0344-.0505-.0465-.101-.081-.1536-.0586-.089-.1374-.1901-.1819-.2872-.0425-.093-.0728-.18-.1254-.2628-.1698-.2649-.3396-.546-.5075-.8108-.0788-.1193-.1213-.2467-.196-.366-.1275-.1961-.2892-.372-.4146-.5702-.1496-.2345-.2305-.5176-.3841-.7521-.0971-.1557-.2123-.2993-.3094-.455-.1092-.1678-.1618-.3639-.2608-.5378-.085-.1557-.2002-.2992-.275-.4529-.083-.1698-.1375-.3356-.2184-.5115-.0445-.093-.1132-.188-.1536-.281-.0546-.1214-.0647-.2407-.1214-.354-.1456-.3255-.366-.6328-.5196-.9583a8.6058 8.6058 0 01-.2952-.7117c-.0485-.1335-.0708-.2609-.1314-.3842-.1355-.2993-.3013-.6127-.4307-.9058-.0566-.1598-.1112-.3155-.1699-.4732-.01-.0444-.0161-.087-.0323-.1354-.0627-.1395-.1456-.277-.2002-.4125a22.1623 22.1623 0 00-.1516-.4832c-.2083-.5217-.3963-1.1121-.5945-1.656-.0242-.097-.0303-.2224-.0687-.3296a58.6601 58.6601 0 01-.3053-.835c-.0587-.1416-.1921-.095-.1618.0505.0405.19.0647.2386.099.3902.0142.0789.0284.1537.0446.2305.0242.093.0707.1901.095.279.0546.1679.0586.3317.1132.4914.083.2244.1638.4428.2386.6733.0182.1152.0445.2305.0667.3478.0344.1071.0789.2183.1173.3154.1153.285.2265.56.3255.839.0425.1618.085.3216.1234.4833.0424.089.1051.18.1435.267.0364.0788.0445.1516.0769.2345.0728.18.1375.364.2204.548.0687.1495.1496.3012.2082.461.0283.0788.0283.1455.0566.2223.174.4772.362.9766.5682 1.4295.0505.1112.0647.2285.1173.3417.0404.097.101.1982.1435.2912.0202.0607.0425.1233.0627.184.0627.1334.1719.2426.2345.376.176.37.3337.724.556 1.0393.2043.2952.2953.6835.445 1.0333.0788.1657.1738.3073.2688.4508.0465.0769.0748.1618.1153.2447.101.182.1557.3397.275.5014.095.1335.0869.1618.1678.3478.0222.0546.1132.4024.095.4024-.0303.0202-.2022-.083-.2608-.1476-.0769-.087-.2022-.2042-.2851-.3923-.0445-.095-.1294-.2588-.1739-.3498-.1072-.2305-.2912-.4266-.4246-.639-.0789-.1232-.1213-.2587-.188-.3922-.1113-.2446-.2407-.4913-.36-.744-.0505-.1052-.1233-.2063-.182-.2993-.0646-.097-.093-.2002-.1556-.2992-.1355-.2123-.2891-.451-.3983-.6834-.081-.1719-.1234-.3438-.2002-.5116-.0263-.0526-.0687-.1051-.1031-.1557-.0546-.087-.0769-.182-.1254-.279-.0606-.1274-.1516-.2527-.2123-.3842-.1233-.2648-.194-.5398-.3154-.8007-.0607-.1213-.1577-.2264-.2143-.3477-.089-.186-.097-.4206-.186-.6147-.2285-.5176-.4934-1.0494-.6875-1.5892-.0303-.091-.0425-.1962-.0708-.2912-.0849-.2345-.1961-.4529-.281-.6834-.0384-.1051-.0506-.2022-.089-.3094-.0566-.1556-.1314-.3214-.188-.4812-.0142-.0525-.0223-.1092-.0425-.1638-.0708-.1476-.1112-.3255-.18-.4812-.0384-.0809-.095-.1637-.1273-.2507-.0546-.1557-.0384-.3518-.095-.4974-.0789-.2204-.172-.459-.2508-.6753-.0485-.1274-.0566-.2487-.101-.3781a20.2454 20.2454 0 00-.1618-.453c-.0526-.1495-.0506-.3113-.1011-.469-.0364-.1213-.087-.2447-.1274-.3579-.0748-.2123-.1072-.4367-.186-.6349-.0121-.0364-.0263-.0748-.0384-.1092-.0203-.0546-.0566-.1071-.1112-.091-.0627.0162-.0627.095-.0587.1476.0122.1578.0708.2993.1133.4267.0525.1334.0768.277.1132.4044.0202.0829.0182.1718.0384.2588.0263.1253.0748.2446.1072.368.0303.1213.0141.2406.0424.3356.0789.2649.1678.5641.2568.8169.0364.1314.0425.283.083.3963.0484.1334.099.2689.1455.4043.0445.1133.0526.2204.099.3276.0506.1112.1072.2285.1497.3559.0505.1637.0445.3255.101.4812.093.2507.2083.4893.2933.7299.0283.089.0384.184.0687.273.0748.2082.1274.4326.2042.643.1092.2992.2487.5924.3579.8876.1051.2911.1213.641.2426.9139.0627.1354.1921.2163.2508.3477.0424.083.0303.18.0586.279.0344.1113.087.2245.1294.3276.0243.095.0485.186.0748.277.0384.1112.1153.2224.1638.3296.0809.1739.1213.3559.2183.5115.0789.1173.174.2265.2386.358.0668.1435.091.2992.1577.4508.0991.2224.2164.4347.2993.6652.0788.2103.1072.4327.2062.6187.1011.182.2245.3458.3235.5257.0627.1375.1254.273.1901.4085.0505.1092.1496.2042.2123.3194a5.914 5.914 0 01.2143.4206c.0506.1092.0688.2083.1294.3013.087.1435.1537.2588.2487.4003.0789.1274.1719.2892.2285.4388.0445.1132.091.2325.1557.3275.0708.097.1617.184.2204.2912.0586.1051.1415.4468.1112.463-.0748.0263-.2851-.1739-.3417-.2446-.1658-.2002-.2467-.4712-.3983-.6835-.1618-.2325-.2629-.3619-.3903-.6268-.0707-.1516-.1981-.4266-.285-.562-.087-.1274-.1962-.2427-.263-.3842-.0525-.1193-.0788-.2609-.1313-.3781-.0789-.1678-.2386-.279-.3195-.455-.093-.194-.1334-.3942-.2325-.5762-.0486-.089-.1112-.188-.1537-.281-.0566-.1153-.0829-.2285-.1375-.3458-.1112-.2386-.279-.4388-.3862-.6753-.1172-.2427-.18-.5055-.2992-.7502-.0607-.1334-.1699-.2466-.2325-.38-.083-.176-.1254-.36-.2083-.538-.0526-.107-.1274-.2122-.178-.3174-.0707-.1536-.097-.3215-.1698-.4812a137.862 137.862 0 00-.4893-1.0979c-.0606-.1395-.0768-.283-.1395-.4246a15.7058 15.7058 0 00-.186-.368c-.1375-.3174-.188-.6895-.3316-1.009-.0728-.1637-.1618-.3174-.2285-.4913-.101-.275-.1375-.558-.2406-.839-.1537-.4287-.277-.8756-.4307-1.3002-.0465-.1273-.0505-.2527-.099-.3862a27.6498 27.6498 0 00-.1375-.372c-.0324-.1031-.0526-.2467-.0789-.376-.1152-.362-.2305-.724-.3437-1.0899-.0283-.087-.0324-.2426-.0627-.3538-.0182-.0627-.0526-.1355-.0768-.1941-.0263-.083-.0263-.1537-.0526-.2406-.085-.265-.1557-.5743-.2406-.8391-.0243-.083-.0324-.2022-.0586-.2952-.1173-.3781-.176-.8412-.3296-1.191-.0243-.0687-.0688-.1415-.1355-.1233-.0667.0162-.0526.093-.0465.1557.0202.1719.085.3195.1132.463.0122.0647.0122.1537.0162.2305.0081.0647.0162.1436.0364.2123.0708.2244.1537.4893.2184.7097.0222.1072.002.273.0323.3963.097.3579.1678.7845.2973 1.106.1192.2932.1415.645.2264.9624.0243.1375.0324.277.0526.4145.0222.1335.095.2245.1354.3357.0324.0829.0284.1536.0607.2406.0667.2285.1213.4529.2022.6834.0566.1597.1436.3094.2002.463.0222.0708.0161.1335.0343.2103.0405.1597.0668.3174.1112.4731.1133.3134.2204.6531.3316.9625.0627.1739.083.3417.1416.5095.2487.6753.4994 1.3446.744 2.0118.0405.1496.083.2993.1214.4469.0546.1496.1435.277.2062.4124.0809.174.1051.3559.1739.5399.0748.2163.178.3821.2608.6066.0384.1051.0769.2244.1254.3296.0364.0768.1031.1516.1415.2305.0667.1314.0768.2992.1395.4326.0668.1335.178.2447.2568.366.0688.1173.0768.2649.1355.3963.093.2042.2123.3923.3012.6086.0364.091.0526.1719.093.2588.0466.099.1214.1941.1679.2993 0 0 .004 0 .008.01.0041.0142.0122.0344.0142.0567.0122.0404.0263.093.0405.1314.0202.0566.0849.1618.1112.2002.0161.0202.0647.0728.101.1213.0183.0182.0344.0404.0526.0647.087.1395.097.3356.1699.4913.0728.1476.2001.269.273.4246.0586.1173.0869.4105.0161.4226-.3033 0-.3255-.4246-.4266-.647-.083-.1739-.2042-.3174-.2952-.4832-.0202-.0324-.0485-.0991-.0688-.1679a1.189 1.189 0 00-.0687-.1698c-.0384-.0809-.0384-.0687-.0647-.1274-.0283-.0566-.1132-.1638-.1375-.2143a.0155.0155 0 01-.004-.0101c-.1173-.186-.1942-.4509-.277-.5783-.0466-.0687-.1072-.1395-.1537-.2103-.0748-.1213-.1153-.2648-.176-.3983-.0565-.1193-.1475-.2386-.2041-.366-.0668-.1496-.0708-.3376-.1436-.4893-.0344-.0829-.1011-.1658-.1415-.2426-.085-.1739-.1355-.3579-.2204-.5277-.0384-.083-.1133-.1598-.1537-.2427-.0667-.1455-.1031-.2992-.178-.4326-.1597-.2872-.3315-.6046-.461-.9079-.0788-.178-.107-.3579-.1819-.5297-.0667-.1517-.1597-.2993-.2265-.4428-.0485-.095-.0586-.1921-.097-.2993-.0647-.1678-.1395-.3417-.2022-.5095-.0364-.1173-.0667-.37-.1031-.4711-.0465-.1274-.1112-.2649-.1658-.3903-.085-.184-.1092-.378-.1921-.564-.0647-.1457-.1355-.2953-.188-.4429-.0465-.1253-.0587-.2426-.1092-.3579-.0384-.089-.091-.188-.1234-.279-.0424-.1092-.0707-.2891-.103-.4347-.0547-.1597-.1214-.3114-.17-.469-.0302-.1194-.0343-.3903-.0606-.4631-.1698-.4893-.3235-1.013-.4792-1.5023-.0707-.2265-.1051-.453-.1678-.6713-.0222-.091-.0243-.2022-.0485-.2911-.0445-.1416-.1031-.2872-.1476-.4327-.0243-.0991-.0405-.2002-.0587-.2973-.0222-.101-.0768-.2062-.1172-.3073-.093-.2952-.1456-.6086-.2326-.8977-.0283-.1193-.0283-.275-.0606-.3842-.1153-.3559-.1395-.7704-.2447-1.1444-.0242-.1092-.0384-.2184-.0647-.3175-.184-.6995-.2669-1.484-.471-2.1553-.0385-.1294.012-.2932-.0223-.4327a8.7878 8.7878 0 00-.1294-.4327c-.0202-.0728-.0223-.1274-.0344-.1921-.0364-.1132-.087-.2042-.1496-.19-.0748.0222-.0587.091-.0566.186.008.1577.0242.287.0546.4124.0262.1072.008.1962.0384.2912.0647.2163.0849.5237.1233.7218.0121.0809 0 .1921.0162.2871.0222.1011.099.2305.1193.3397.0222.1436.0202.3316.0424.4893.0284.1314.0688.2588.1032.3822.0283.1071.008.2102.0404.3093.0303.1031.085.2042.1051.3175.0162.1233-.002.3033.0243.4145.1577.6146.2042 1.3425.3842 1.931.0222.0848.0263.1758.0465.2607.1496.5176.2648 1.0676.4205 1.5792.0203.0788.0182.1617.0385.2507.0505.18.093.374.1334.554.0182.087.0162.1638.0404.2446.0526.188.1173.37.18.556.0222.093.0323.182.0485.271.0162.0708.0526.1517.0748.2204.0324.1072.0223.2103.0546.3094.0243.0566.0708.1213.085.182.0242.1111.0384.2203.0687.3275.0445.1294.1132.2568.1658.3842.0404.1071.0404.2163.0809.3214.0728.178.1516.3923.2224.5864.0566.1577.0647.3195.1213.4792.0384.1072.089.2163.1254.3215.0242.0809.0384.1617.0667.2487.0263.0748.1112.1961.1658.2992.0465.1112.0242.2629.0586.3842.0384.1233.1072.2224.1496.3356.0385.1153.0364.2386.0688.3559.0323.091.095.178.1314.2628.0364.1011.0728.1982.1092.2973.0283.0626.0829.1314.1152.192.0526.1133.097.2407.1436.358.0667.1657.0728.372.1254.566.0141.0567.01.1881-.0203.2023-.0788.0141-.1658-.1092-.2183-.184-.091-.1294-.178-.271-.2447-.4246-.0242-.0587-.0364-.1133-.0566-.174-.0505-.1273-.089-.2749-.1476-.4023-.0344-.0809-.087-.1658-.1152-.2507-.0405-.1233-.0223-.269-.0708-.376-.0405-.089-.1132-.1618-.1537-.2508-.0283-.0829-.0445-.1678-.0788-.2507-.0445-.099-.1032-.186-.1598-.281-.0404-.091-.0343-.18-.0667-.2872-.0344-.1274-.0748-.2527-.1294-.368-.0526-.1172-.1213-.2345-.1739-.3558-.0242-.0668-.0364-.1355-.0546-.2022-.0323-.091-.0809-.188-.1152-.277-.0202-.0688-.0384-.1395-.0668-.2042-.0424-.0991-.095-.2103-.1354-.3195-.0303-.087-.0344-.182-.0667-.269-.0546-.1556-.1072-.3295-.1618-.4811-.0324-.1173-.0425-.2366-.0789-.356-.0444-.1374-.105-.2749-.1556-.4144-.0385-.1112-.0486-.2305-.081-.3458-.0525-.1476-.1273-.285-.1778-.4407-.0304-.1254-.0364-.2508-.0627-.368-.085-.2892-.178-.6086-.269-.9058-.105-.3296-.1152-.7037-.2102-1.0373-.0688-.2386-.1537-.469-.2265-.7036-.0263-.1234-.0303-.2366-.0606-.3539a13.7665 13.7665 0 00-.2508-.8876c-.0444-.1456-.0303-.2952-.0727-.4509-.0425-.1577-.0445-.3437-.095-.5115-.0324-.1011-.0708-.176-.0951-.3074-.0283-.1314-.0263-.285-.0445-.3841-.0182-.0991-.188-.6814-.2083-.7906-.0202-.1072-.0202-.3053-.0323-.376-.0121-.0466-.099-.2973-.1092-.364-.0121-.0647-.0121-.1396-.0364-.269-.0283-.1294-.1031-.4165-.1152-.4994-.0142-.0849-.0142-.2527-.0304-.3356-.0182-.083-.0728-.277-.1112-.4145-.0465-.1678-.008-.3437-.0546-.5014a4.5334 4.5334 0 00-.1193-.3418c-.0262-.093-.0586-.2244-.0647-.283-.006-.091-.012-.273-.0182-.3417-.002-.093-.0424-.2507-.0505-.3882C1.0477.868 1.0072.6699.9769.5546.9607.486.9668.405.9526.3423.9041.1583.8596-.0115.7666.0006.7.0107.6736.0673.704.1866.7363.3302.7504.4434.789.583c.016.0747.022.2628.022.3255.006.101.0101.1233.0222.2224.0081.0364.0243.1294.0364.1698.0142.0647.0344.1597.0324.2063 0 .0647-.002.1334-.002.2264 0 .0485.002.0647.0202.1476.0202.0809.0283.099.0344.1658.004.0586-.002.1153.002.1658 0 .0647.008.1274.0283.186.0344.1234.1132.2912.0829.4711-.0364.1921.0222.374.0667.5399.0202.1071 0 .2244.0202.3275a17.68 17.68 0 01.1112.4408c.0304.1213.0101.2305.0425.3478.0425.1597.1537.378.1698.4509.0122.0728.0101.2689.0304.3943.0222.1233.0525.2669.0606.3457.0101.0809-.002.1153.006.1739.0082.0586.087.3397.0992.4125.0161.0728.0121.1112.0283.186.0141.0788.0788.3801.091.4772.0161.099.012.1557.0303.2547.0283.1496.089.275.1193.4186.0202.1092.0141.1759.0263.2608.0323.1355.0768.2568.101.3842.0203.101.0223.1981.0405.3012.0465.2164.0768.4347.1375.651.0364.1275.1092.2447.1476.368.0303.1133.0404.2366.0708.3479.0303.095.097.184.1213.287.0162.089.0141.18.0303.271.0223.1011.0667.2022.087.3073.0161.0789.008.1557.0303.2386.0263.091.0728.174.095.2609.0202.1112.0202.2224.0485.3356.0324.1294.087.2568.1274.376.0384.1113.0182.2346.0526.356.0728.2628.1597.554.2467.8006.0384.1314.0323.269.0808.4125.0364.095.0769.1597.1173.2426.0303.085.002.178.0283.275.0425.1597.0647.376.1234.5318.0626.1759.1658.3194.2264.4913.0627.18.0667.36.1274.548.0546.1597.1375.3073.1981.4529.0506.1273.0324.2972.081.4347.0565.1476.1597.2608.2183.4125.0627.1738.1051.3477.1577.5196.0202.0748.0324.1476.0465.2204.0647.2264.186.4145.2649.6288.0303.099.0384.184.0667.277.0546.1557.1173.3154.19.461.0587.1334.1456.2649.2063.3983.0546.1234.0647.2467.1173.3761.0505.1233.1092.2568.1557.3842.0303.0788.0323.1496.0667.2224.1537.3417.3397.6874.4974 1.021.0829.184.1233.3822.2123.5702.0667.1456.1496.2851.2163.4428.0405.0991.0526.1941.095.2872.085.184.2063.37.2872.55.0222.0485.089.2426.0606.3174-.004.01-.004.0242-.0182.0303-.0566.0141-.1698-.083-.2345-.1476-.2204-.2103-.2548-.6167-.4064-.8937-.0425-.0809-.097-.1678-.1335-.2507-.0222-.0607-.0343-.1173-.0626-.174-.095-.1799-.2144-.3416-.2973-.5317-.0626-.1375-.0707-.2932-.1294-.4226-.2487-.5378-.5378-1.0534-.7764-1.5932-.1092-.2447-.1334-.5217-.2285-.7886-.0586-.1577-.1536-.285-.2204-.4347-.0505-.1153-.0626-.2366-.1172-.3559-.0688-.1516-.1679-.2952-.2265-.463-.0344-.1071-.0505-.2163-.091-.3215-.0505-.1193-.1294-.2183-.182-.3316-.0748-.1698-.0869-.3376-.1415-.5317-.0323-.1052-.0748-.2123-.1071-.3074-.0263-.089-.0385-.182-.0688-.2669-.0728-.2042-.1941-.3821-.271-.5904-.0505-.1395-.0383-.3174-.101-.4529-.0486-.1112-.1375-.2002-.182-.3174-.0506-.1234-.004-.269-.0445-.4125-.0364-.1375-.093-.2649-.1375-.3963-.0242-.0829-.0323-.1618-.0546-.2406-.0647-.1658-.1233-.3336-.182-.4994-.0323-.085-.0323-.1638-.0667-.2406-.0465-.0991-.1172-.1921-.1557-.2993-.0424-.1638-.0545-.3336-.093-.4913-.0647-.2143-.1435-.3842-.2062-.5884-.0121-.0647-.0121-.1274-.0324-.2002-.0505-.182-.0748-.3862-.1253-.5681-.0202-.089-.0162-.1638-.0384-.2507-.0506-.172-.1072-.3438-.1598-.5075-.0283-.1092-.0323-.2164-.0606-.3195-.083-.269-.1598-.5864-.2386-.8452-.0202-.0768-.0162-.1476-.0384-.2325-.0647-.2062-.1496-.453-.1962-.6652-.0222-.1234-.0242-.2426-.0505-.3559-.0323-.1435-.0829-.281-.1112-.4246-.0101-.0667 0-.1152-.006-.1718-.0122-.093-.0203-.184-.0365-.277-.095-.3741-.2386-.831-.3194-1.2031-.0263-.1355-.0304-.271-.0445-.4044-.0162-.093-.0223-.2022-.0485-.2992-.0304-.097-.0728-.1982-.089-.2993-.0202-.1597-.0202-.3174-.0445-.471 0-.0102-.006-.0223-.008-.0345C.532 3.628.437 3.2397.4147 3.084.3905 2.9.3683 2.71.344 2.53.34 2.4108.3198 2.2854.3056 2.16c-.0283-.192-.0728-.3599-.095-.56-.0142-.1315-.0081-.2487-.0243-.362-.008-.0707-.0121-.192-.103-.192-.087 0-.0749.103-.081.186-.0121.1981.0263.459.0425.5823.0263.2285.008.4529.0303.6854.0162.1314.0566.2608.0708.3842.0323.2204.0546.4448.0829.655v.0122a2.601 2.601 0 00.0384.2892c.002.01.002.0202.006.0283 0 .006 0 .01.002.0141.0021.006.0021.0081.0041.0162h.002a1.314 1.314 0 00.0284.1294c.0222.0829.0141.1516.0384.2386.0667.2547.0505.5318.1233.7784.1011.37.1537.7805.2608 1.1444.0263.1072 0 .2144.0304.3296.0283.1173.0586.2285.087.3458.0282.1375.008.281.0464.4225.0324.1295.0708.2609.1052.3842.0404.1517.0444.3073.0849.4711.0485.1638.1031.3438.1334.5116.0324.19.0526.4044.089.6066.0303.1658.1213.366.1618.5479.012.0607.006.1213.0161.182.0223.1314.0627.2588.089.3841.0141.0587.0101.1112.0283.174.0586.2385.1355.5398.2103.7784.0182.0647.0263.1334.0424.2022.0486.1698.0991.2952.1193.3861.0162.0789.0243.174.0465.2609.0364.1294.0748.2426.0991.3558.0202.089.0344.1679.0586.2568.0284.1072.0708.2063.1153.3114.0728.2143.0809.4428.1577.653.0465.1234.1051.2447.1456.3762.0344.1213.0424.2689.0788.4064.0749.2062.1537.4428.2285.651.089.2487.1436.5176.2265.7522.0364.095.0283.186.0606.2871.0688.2325.1497.4974.2265.734.0404.1253.0404.2466.091.366.0788.198.194.3639.2689.5681.0607.1759.0748.3498.1436.5095.0869.2164.184.4368.2709.6652.0566.1577.0768.3134.1415.461.0546.1274.1274.2588.188.3882.0385.1133.0769.2225.1133.3357.0323.087.1233.2325.186.3478.0708.1556.0809.3214.1415.4893.091.2547.2184.5135.3236.7521.0424.093.0485.18.0869.279.0647.1699.1739.2973.2447.455.0687.1496.0869.3073.1516.4509.099.2123.1698.3215.1698.6248-.002.0283-.008.0485-.0404.0606-.0546.0223-.1193-.0748-.1577-.1092-.1618-.1557-.186-.3093-.2891-.5297-.1537-.3336-.3498-.649-.5015-.9726-.0809-.1698-.1132-.3558-.192-.5317-.0486-.1052-.1194-.2123-.1659-.3175-.0707-.1536-.1071-.3134-.186-.4509-.1112-.2001-.2022-.4428-.2932-.6672-.0343-.085-.0384-.1678-.0748-.2507-.0404-.089-.1051-.1658-.1435-.2528-.0566-.1354-.095-.3073-.1517-.4509-.1233-.2689-.2608-.554-.366-.839-.095-.2609-.1395-.5116-.2345-.7785-.0404-.1092-.093-.2265-.1314-.3377-.0303-.099-.0324-.186-.0667-.279-.087-.2386-.1982-.4933-.3033-.7218-.0486-.1153-.0627-.2245-.1072-.3458-.0505-.1496-.1173-.3093-.1698-.4529-.0708-.192-.0728-.4165-.1456-.6167-.1537-.4327-.3559-.8836-.4893-1.3385-.0243-.1051-.0162-.2123-.0485-.3174a36.5024 36.5024 0 01-.2164-.7239c-.0788-.2689-.0708-.552-.1537-.8148-.1071-.3417-.2305-.6976-.3356-1.0332-.0303-.1011-.0162-.2083-.0485-.3175-.0708-.2588-.1618-.5661-.2487-.8067-.0425-.1213-.0425-.2528-.089-.366-.0546-.1395-.194-.089-.182.0667.0101.1416.0587.3215.0728.3943.0162.097.0162.1941.0384.2972.0425.182.1011.3337.1517.4995.0566.1738.0566.3336.1031.5115.0283.087.0627.184.089.2669.0525.178.0525.368.1132.5297.0465.1234.0809.279.1213.4145.0243.089.0202.1618.0485.2508.0465.1617.097.3214.1497.4832.0242.091.0161.1719.0343.2568.0364.1294.0668.2588.1032.378.0323.1133.0283.271.0687.3923.0708.2204.1537.455.2265.6653.0849.2325.095.473.1779.7117.1516.4165.2891.8977.4387 1.3203.0405.1072.0284.2184.0607.3356.0506.18.091.36.1537.5399.0303.085.087.1719.1213.2487.0505.1031.0606.2143.1092.3215.0384.0829.093.1698.1253.2568.0465.1334.0304.2992.083.4246.0383.101.093.2123.1334.3174.0445.1153.0424.2406.091.3498.0384.093.1071.184.1516.277.0445.087.0526.18.085.279.0404.1011.095.2042.1374.2993.0465.1051.0485.2264.0991.3376.0404.095.1051.186.1436.2892.0384.1071.0404.2224.0788.3356.0647.1638.1658.3074.2366.463.0525.1153.0586.2467.1112.366.0586.1375.1415.271.2042.4024.0809.182.1415.372.2224.5419.1335.3032.18.6348.3195.932.101.2245.2406.4307.3397.647.0525.1234.0707.2528.1273.366.0607.1315.1719.2427.2305.3781.0486.1315.087.267.1436.3943.0789.1678.186.3195.2628.4833.0445.093.0647.184.1072.277.083.184.2224.3336.3073.5135.0405.1173.085.2346.1254.3559.091.192.2345.3559.3296.55.0647.1435.1112.2931.1961.4246.1294.2042.2143.3376.3417.5459.083.1334.1941.3296.2608.4751.0668.1456.178.265.2427.4065.0667.1395.1516.2911.2264.4225.085.1497.1699.2568.2649.3984.1496.2284.2447.473.3943.7056.1031.1618.2224.3255.3356.4812.3053.4186.74 1.1606.924 1.4113.1557.2022.2831.4449.4267.6551.1071.1679.2446.3296.364.4833.099.1253.1758.2628.2709.3963l.0768.101c3.8841 4.9397 7.8774 8.2071 11.258 10.3524l-.002.002c1.7834 1.112 2.7439 1.4355 2.7439 1.4355.2244.095.0727.2588-.0445.3316L5.2169 59.6637c-.0627.0425-.2164.1557-.1537.281.0465.0951.2487.0425.3033.0243 16.0926-5.6472 27.7672-10.2916 34.9046-13.6783 7.2365-3.4332 9.6668-5.3986 9.402-6.3772m219.6629-6.1343v-1.1464h1.391c1.7147 0 3.4859 0 4.5474.3477 2.8044.8331 4.2218 2.9723 4.2218 6.3347 0 2.7499-1.749 6.8362-6.5814 6.8362-1.3951 0-2.853-.556-3.5788-.8876zm5.6533 15.2211c6.5571 0 10.4675-4.9659 10.4675-9.7558 0-2.6508-.9806-7.372-7.6105-9.0441-1.476-.3781-3.128-.4004-5.2874-.4004l-11.6665-.012.1981.1941s1.9916.2972 1.9916 3.7972v21.7721c0 3.498-1.9916 3.7912-1.9916 3.7912l-.1981.2082h10.6192l-.1962-.2082s-1.9794-.2932-1.9794-3.7912v-7.5883c.924.4125 2.7943 1.0373 5.6533 1.0373m154.8738 1.3082l-2.3394 7.9664s-5.069 1.7247-9.414 1.7247c-11.5392 0-17.1319-7.928-17.1319-15.1079 0-8.9268 6.7795-15.5769 17.5645-15.5769 5.9647 0 10.1784 2.0583 10.1784 2.0583v6.4318l-.1739-.1436s-2.5193-5.4491-9.5253-5.4491c-6.7573 0-11.0498 4.9982-11.0498 12.6391 0 7.6469 4.428 11.8384 10.8092 11.8384 7.0485 0 10.8194-6.2154 10.8194-6.2154zm-74.9833-16.5293v21.7721c0 3.498 1.9957 3.7912 1.9957 3.7912l.2001.2082h-10.6333l.2042-.2082s1.9835-.2932 1.9835-3.7912V33.7793c0-3.5-1.9835-3.7972-1.9835-3.7972l-.2042-.1941h10.6333l-.2001.1941s-1.9957.2972-1.9957 3.7972m24.8414-3.9913c3.506 0 4.0116-.3356 4.0116-.3356v5.3136l-.2022-.1618s-1.4599-2.0098-4.968-2.0098h-7.5357v9.5112h6.27c3.498 0 3.7932-1.5306 3.7932-1.5306l.2082-.2062v6.3933l-.2082-.2062s-.2952-1.5367-3.7932-1.5367h-6.27v10.5342c0 3.498 1.9755 3.7912 1.9755 3.7912l.2102.2082h-10.6191l.19-.2082s1.9856-.2932 1.9856-3.7912v-21.762c0-3.502-1.9856-3.7952-1.9856-3.7952l-.19-.2062h17.1277zM342.346 50.4744l.2527-.1658-2.3293 7.9664s-5.067 1.7247-9.4222 1.7247c-11.527 0-17.1196-7.928-17.1196-15.1079 0-8.9268 6.7674-15.5709 17.5624-15.5709 5.9708 0 10.1683 2.0523 10.1683 2.0523v6.4318l-.1678-.1436s-2.5254-5.4491-9.5152-5.4491c-6.7654 0-11.0498 4.9982-11.0498 12.6391 0 7.6469 4.4118 11.8384 10.8031 11.8384 7.0303 0 10.8174-6.2154 10.8174-6.2154m53.4396-16.6951v21.7721c0 3.498 1.9875 3.7912 1.9875 3.7912l.2002.2082H387.342l.2002-.2082s1.9875-.2932 1.9875-3.7912V33.7793c0-3.5-1.9875-3.7972-1.9875-3.7972l-.2002-.1941h10.6313l-.2002.1941s-1.9875.2972-1.9875 3.7972M291.9048 48.1714l4.5857-9.6487 4.1894 9.6487zm19.0182 7.3255l-13.0697-27.2011-12.9889 27.2011c-1.9471 3.7203-4.0883 3.7992-4.0883 3.7992l-.2002.2062h8.8803l-.1941-.2062s-2.491-.4914-.916-3.7992l2.3435-4.8021h11.1267l2.2645 4.8021c1.5751 3.3078-.9098 3.7992-.9098 3.7992l-.2002.2062h12.2448l-.2042-.2062s-2.2545-.016-4.0884-3.7992m-124.3163.014c0-3.502-.0121-18.2702-.0121-21.7721 0-3.502 1.9875-3.7568 1.9875-3.7568l.2043-.1941H178.155l.1941.1941s1.9896.2548 1.9896 3.7568c0 3.5019.0162 8.5467.0162 8.5467h-14.6226v-8.5467c0-3.502 1.9936-3.7447 1.9936-3.7447l.1941-.2021h-10.6232l.2083.2021s1.9815.2427 1.9815 3.7447v21.7721c0 3.5081-1.9815 3.8093-1.9815 3.8093l-.2083.1982H167.92l-.194-.1982s-1.9937-.3012-1.9937-3.8093V45.2011h14.6226v10.3098c0 3.5081-1.9815 3.8093-1.9815 3.8093l-.2062.1982h10.6353l-.2062-.1982s-1.9896-.3012-1.9896-3.8093M130.8136 29.792c-3.506 0-3.9994-.3357-3.9994-.3357l-.012 5.9162.2041-.1496s1.5994-2.5638 5.0933-2.5638h4.99v22.8518c0 3.5081-1.9753 3.8093-1.9753 3.8093l-.2063.1982h10.6273l-.1982-.1982s-1.9895-.3012-1.9895-3.8093l.0263-22.8518h4.8708c3.506 0 5.1883 2.5638 5.1883 2.5638l.2062.1496.0121-5.9162s-.4954.3357-4.0014.3357h-18.8363zm70.345 18.3793l4.5938-9.6487 4.1813 9.6487zm19.0304 7.3255l-13.078-27.2011-12.9929 27.2011c-1.943 3.7203-4.0863 3.7992-4.0863 3.7992l-.2022.2062h8.8864l-.19-.2062s-2.489-.4914-.92-3.7992l2.3332-4.8021h11.1409l2.2605 4.8021c1.5811 3.3078-.9058 3.7992-.9058 3.7992l-.2022.2062h12.2428l-.2042-.2062s-2.2565-.016-4.0823-3.7992m20.9815-25.7048l.2063.2021s2.6265.7381.645 3.8195c-.9705 1.4982-3.8963 5.6856-6.5612 9.7335-2.677-4.0479-5.5603-8.2616-6.5227-9.7578-1.9795-3.0855.6571-3.7952.6571-3.7952l.192-.2021h-12.2407l.1982.2021s1.7712.2932 4.0964 3.7952c.9746 1.478 5.9465 8.4254 8.6215 12.4794v9.2422c0 3.5081-1.9876 3.8093-1.9876 3.8093l-.1981.1982h10.6273l-.2043-.1982s-1.9794-.3012-1.9794-3.8093c0-1.4821-.0202-5.1964-.0202-9.2422 2.679-4.054 7.661-10.9731 8.6417-12.4551 2.301-3.498 4.9477-3.8195 4.9477-3.8195l.2062-.2021h-9.3251zM84.9218 56.6897c-6.3933 0-10.8052-4.1915-10.8052-11.8384 0-7.6409 4.2886-12.6391 11.0378-12.6391 7.006 0 9.5253 5.4491 9.5253 5.4491l.1658.1436v-6.4318s-4.1935-2.0523-10.1703-2.0523c-10.789 0-17.5605 6.6441-17.5605 15.5709 0 7.1799 5.5927 15.1079 17.1237 15.1079 4.3492 0 9.4222-1.7247 9.4222-1.7247l2.3313-7.9664-.2568.1658s-3.781 6.2154-10.8133 6.2154m22.6032-8.5184l4.5898-9.6487 4.1833 9.6487zm19.0284 7.3255l-13.0779-27.2011-12.9909 27.2011c-1.943 3.7203-4.0924 3.7992-4.0924 3.7992l-.194.2062h8.8964l-.2143-.2062s-2.483-.4914-.9018-3.7992l2.3273-4.8021h11.1368l2.2625 4.8021c1.571 3.3078-.9119 3.7992-.9119 3.7992l-.194.2062h12.2467l-.2102-.2062s-2.2585-.016-4.0823-3.7992" fill="#006b6e"/></svg>